<?xml version="1.0" standalone="no"?>
<!DOCTYPE svg PUBLIC "-//W3C//DTD SVG 20010904//EN"
 "http://www.w3.org/TR/2001/REC-SVG-20010904/DTD/svg10.dtd">
<svg version="1.0" xmlns="http://www.w3.org/2000/svg"
 width="259.000000pt" height="194.000000pt" viewBox="0 0 259.000000 194.000000"
 preserveAspectRatio="xMidYMid meet">

<g transform="translate(0.000000,194.000000) scale(0.100000,-0.100000)"
fill="#000000" stroke="none">
<path d="M1110 1250 c-131 -10 -150 -16 -150 -49 0 -25 3 -26 57 -28 31 -2 61
-7 66 -12 5 -5 -13 -21 -42 -39 -34 -21 -51 -27 -55 -19 -3 7 -4 6 -4 -3 0
-20 26 -89 27 -71 1 11 4 11 18 0 9 -8 14 -9 11 -4 -4 6 2 16 13 23 17 11 19
9 19 -15 l0 -28 113 -1 c77 0 96 2 62 6 l-50 7 52 1 c60 2 60 2 10 86 -31 54
-26 66 25 66 15 0 30 5 33 10 9 14 -12 39 -33 39 -9 0 -42 4 -72 9 -51 9 -46
10 59 11 126 1 155 -9 207 -72 18 -22 22 -25 14 -9 -20 41 -6 33 56 -29 48
-49 56 -61 44 -69 -12 -8 -11 -10 6 -10 12 0 27 -7 34 -15 8 -9 28 -14 54 -13
l41 2 -30 12 c-35 14 -171 142 -167 156 1 5 -1 7 -6 4 -5 -3 -18 1 -28 9 -19
15 -18 15 1 10 11 -3 6 1 -12 10 -28 13 -222 38 -263 33 -8 0 -58 -4 -110 -8z
m100 -131 c7 -11 10 -23 7 -25 -3 -3 -29 -4 -58 -2 l-54 3 40 22 c50 28 52 28
65 2z m-190 -55 c0 -9 5 -12 12 -8 7 4 8 3 4 -4 -4 -6 -13 -9 -21 -5 -17 6
-21 33 -5 33 6 0 10 -7 10 -16z"/>
<path d="M768 1203 c6 -2 18 -2 25 0 6 3 1 5 -13 5 -14 0 -19 -2 -12 -5z"/>
<path d="M820 1190 c0 -5 14 -10 30 -10 17 0 30 5 30 10 0 6 -13 10 -30 10
-16 0 -30 -4 -30 -10z"/>
<path d="M778 1183 c7 -3 16 -2 19 1 4 3 -2 6 -13 5 -11 0 -14 -3 -6 -6z"/>
<path d="M656 1153 c-2 -10 -8 -53 -12 -95 l-6 -78 113 1 c63 1 101 4 85 8
-16 3 -31 13 -33 21 -4 12 -3 12 5 2 6 -9 20 -11 44 -7 24 5 38 3 43 -6 6 -9
3 -11 -8 -6 -10 3 -17 3 -17 -2 0 -4 22 -8 49 -7 60 1 60 11 1 15 -11 0 -20 8
-20 17 0 10 5 12 13 7 23 -14 34 -11 32 11 -3 30 -3 30 -22 15 -17 -14 -125
-20 -116 -6 2 4 15 7 28 7 19 0 35 16 35 36 0 2 -29 4 -65 4 -58 0 -65 -2 -65
-20 0 -16 -7 -20 -36 -20 l-36 0 4 60 c3 57 -5 79 -16 43z"/>
<path d="M952 1140 c0 -14 2 -19 5 -12 2 6 2 18 0 25 -3 6 -5 1 -5 -13z"/>
<path d="M971 1134 c0 -11 3 -14 6 -6 3 7 2 16 -1 19 -3 4 -6 -2 -5 -13z"/>
<path d="M961 1094 c0 -11 3 -14 6 -6 3 7 2 16 -1 19 -3 4 -6 -2 -5 -13z"/>
<path d="M1525 1082 l16 -33 -34 6 c-23 5 -47 1 -73 -11 -21 -10 -50 -21 -64
-25 l-25 -7 27 -1 c14 0 28 -7 30 -13 6 -17 258 -25 258 -9 0 7 -44 12 -127
13 l-128 2 110 5 c68 4 108 10 105 16 -3 6 -9 8 -15 5 -5 -2 -50 -6 -100 -8
-86 -3 -89 -2 -61 13 32 17 82 22 56 5 -11 -7 -6 -10 21 -10 24 0 39 5 43 15
3 9 0 15 -9 15 -8 0 -15 4 -15 8 0 5 -7 17 -15 28 -14 16 -14 14 0 -14z"/>
<path d="M881 1074 c0 -25 2 -26 8 -9 l8 20 5 -20 c4 -14 6 -15 7 -4 0 9 -6
22 -14 29 -13 11 -15 8 -14 -16z"/>
<path d="M971 1064 c-1 -6 4 -25 10 -43 12 -33 39 -46 80 -38 16 3 11 5 -14 6
-23 0 -36 5 -32 11 4 6 1 9 -5 8 -7 -2 -18 13 -25 32 -8 19 -14 30 -14 24z"/>
<path d="M1751 1014 c0 -11 3 -14 6 -6 3 7 2 16 -1 19 -3 4 -6 -2 -5 -13z"/>
<path d="M1128 993 c6 -2 18 -2 25 0 6 3 1 5 -13 5 -14 0 -19 -2 -12 -5z"/>
<path d="M915 960 c-13 -6 -15 -9 -5 -9 8 0 22 4 30 9 18 12 2 12 -25 0z"/>
<path d="M598 913 c7 -3 16 -2 19 1 4 3 -2 6 -13 5 -11 0 -14 -3 -6 -6z"/>
<path d="M578 883 c6 -2 18 -2 25 0 6 3 1 5 -13 5 -14 0 -19 -2 -12 -5z"/>
<path d="M1649 883 c-1 -5 -1 -12 0 -17 1 -5 -7 -6 -17 -4 -32 9 -41 -5 -50
-70 -5 -33 -5 -59 -1 -56 4 2 10 0 14 -6 4 -6 -7 -13 -24 -16 -27 -6 -49 -34
-43 -56 1 -5 -8 -6 -21 -4 -12 3 -27 5 -33 5 -7 1 -14 10 -17 22 -3 12 -10 18
-15 15 -5 -3 -14 6 -21 20 -9 20 -9 30 1 43 10 13 10 14 -2 3 -12 -10 -20 -6
-50 22 -62 62 -160 65 -212 7 -35 -40 -48 -88 -48 -188 0 -52 -4 -83 -11 -83
-5 0 -7 -5 -3 -12 5 -8 -12 -9 -67 -5 -95 9 -216 24 -254 32 -23 5 -26 4 -14
-4 9 -6 45 -14 80 -19 57 -9 46 -10 -101 -12 -187 -3 -181 -3 -197 -13 -8 -5
-8 2 0 28 9 29 15 35 39 35 16 0 27 -5 25 -12 -2 -14 93 -12 107 3 17 15 -3
23 -29 11 -37 -17 -68 -15 -37 1 21 12 16 14 -53 26 -85 14 -120 39 -39 27 73
-10 377 -44 467 -52 66 -6 77 -5 72 8 -3 8 -11 15 -18 16 -7 0 -34 3 -62 6
-27 3 -142 15 -255 26 -196 19 -251 26 -254 32 -1 2 -12 35 -24 75 -28 89 -66
133 -114 133 -43 0 -76 -24 -95 -67 -13 -33 -16 -34 -56 -29 l-42 5 43 -11
c34 -9 41 -14 37 -29 -4 -10 0 -33 9 -51 8 -18 17 -51 21 -73 10 -58 40 -122
64 -134 11 -6 57 -11 103 -12 105 0 665 -70 798 -99 25 -5 168 -15 317 -21
212 -10 310 -10 440 -1 230 17 253 25 171 62 -24 10 -38 19 -31 19 15 1 83 60
83 72 0 5 -11 7 -25 5 -17 -3 -29 2 -39 16 -13 18 -25 20 -127 19 -85 -1 -119
-5 -137 -17 -50 -33 -403 4 -389 41 4 9 -2 12 -19 10 -14 -1 -24 3 -24 11 0 7
-3 21 -7 31 -5 15 -4 16 8 7 22 -19 148 -34 272 -34 130 0 491 24 615 41 152
21 105 31 -119 26 -118 -3 -189 -3 -159 -1 30 2 115 8 189 13 73 6 136 12 139
15 3 3 -7 17 -21 30 -28 26 -35 46 -17 46 6 0 -5 15 -24 33 -19 17 -37 47 -41
65 -7 36 -35 44 -35 10 0 -12 17 -38 40 -59 41 -39 48 -55 29 -61 -7 -2 -7
-12 0 -30 l10 -26 -85 -7 c-47 -4 -135 -5 -195 -3 -61 3 -112 1 -115 -4 -8
-13 -34 18 -34 41 0 14 -6 21 -19 21 -11 0 -23 5 -26 10 -10 17 -33 11 -40
-10 -3 -11 -15 -20 -25 -20 -10 0 -20 -5 -22 -12 -3 -9 -19 -6 -59 9 -40 16
-48 22 -28 22 25 1 49 17 49 33 0 5 -9 3 -19 -4 -25 -15 -96 4 -105 29 -6 15
-5 15 13 -1 19 -17 19 -17 15 2 -5 16 -1 19 25 18 17 -1 31 -4 31 -7 0 -11
-26 -29 -34 -24 -3 3 -2 -1 4 -7 15 -18 45 4 44 31 -1 15 3 20 12 17 18 -7 17
14 -1 38 -14 18 -15 19 -15 2 0 -15 -5 -17 -27 -12 -17 5 -29 3 -34 -6 -6 -9
-11 -10 -19 -2 -9 9 -6 16 11 28 13 9 30 16 39 17 10 0 9 3 -5 9 -26 11 -35
12 -36 3z m-1242 -123 c36 -33 38 -57 6 -85 -24 -21 -26 -26 -13 -35 24 -16
38 -12 43 13 3 12 3 -2 1 -32 -9 -109 -53 -143 -109 -81 -17 18 -20 36 -20
107 0 80 1 86 28 109 34 29 38 29 64 4z m932 -43 c51 -43 67 -174 28 -242 -43
-77 -111 -70 -154 15 -41 80 -26 183 33 229 29 23 63 22 93 -2z m547 -21 c19
-19 18 -25 -5 -23 -11 0 -17 5 -15 9 3 4 0 8 -5 8 -6 0 -11 5 -11 10 0 15 19
12 36 -4z m-376 -60 c0 -2 -11 -6 -25 -8 -14 -3 -25 -1 -25 3 0 5 11 9 25 9
14 0 25 -2 25 -4z m248 -13 c-38 -2 -98 -2 -135 0 -38 2 -7 3 67 3 74 0 105
-1 68 -3z m210 0 c-21 -2 -55 -2 -75 0 -21 2 -4 4 37 4 41 0 58 -2 38 -4z
m-453 -131 c-3 -3 -11 0 -18 7 -9 10 -8 11 6 5 10 -3 15 -9 12 -12z m535 11
c-54 -6 -69 -13 -45 -23 19 -8 19 -9 -1 -9 -12 -1 -25 6 -28 15 -3 8 -2 12 3
9 5 -3 12 -1 16 5 3 5 25 9 48 8 40 -1 40 -1 7 -5z m-86 -18 c3 -8 1 -15 -4
-15 -6 0 -10 7 -10 15 0 8 2 15 4 15 2 0 6 -7 10 -15z m-390 -4 c3 -4 -6 -6
-19 -3 -14 2 -25 6 -25 8 0 8 39 4 44 -5z m64 -8 c-10 -2 -26 -2 -35 0 -10 3
-2 5 17 5 19 0 27 -2 18 -5z m322 -32 c19 -17 28 -31 21 -35 -6 -4 -56 -2
-112 4 -56 5 -136 10 -178 10 -42 0 -96 6 -120 14 -40 11 -42 13 -20 19 37 10
187 8 194 -3 6 -9 35 -7 110 9 64 14 72 13 105 -18z"/>
<path d="M346 741 c-21 -23 -32 -93 -22 -145 12 -65 61 -87 91 -42 15 22 15
26 -1 45 -22 25 -37 9 -23 -26 6 -17 5 -23 -6 -23 -8 0 -15 13 -17 33 -2 19
-8 31 -15 30 -7 -2 -13 6 -13 18 0 13 4 18 12 13 8 -5 9 4 5 34 -4 24 -3 43 3
47 5 3 10 -1 10 -9 0 -24 21 -30 27 -7 5 18 8 19 22 9 14 -12 14 -11 0 12 -21
32 -50 36 -73 11z"/>
<path d="M1243 698 c-25 -28 -43 -80 -43 -124 0 -72 50 -137 102 -132 50 5
103 99 61 111 -10 2 -26 8 -35 12 -23 9 -24 -15 -2 -57 13 -25 13 -32 3 -39
-20 -12 -29 -1 -29 36 0 44 -15 53 -33 19 -14 -27 -15 -27 -26 -6 -9 17 -8 23
6 30 23 14 25 42 3 61 -15 13 -17 21 -8 41 l11 25 10 -32 c5 -18 14 -33 19
-33 5 0 6 5 3 10 -3 6 -2 10 2 10 5 0 10 12 11 27 3 33 7 37 27 29 14 -5 13
-10 -5 -45 -28 -55 -26 -62 15 -45 l35 14 1 -27 c1 -19 3 -22 6 -10 8 32 -7
85 -33 117 -31 37 -72 40 -101 8z"/>
<path d="M2327 836 c-4 -10 0 -14 14 -13 10 1 19 7 19 14 0 18 -27 16 -33 -1z"/>
<path d="M2080 760 c0 -5 5 -10 11 -10 5 0 7 5 4 10 -3 6 -8 10 -11 10 -2 0
-4 -4 -4 -10z"/>
<path d="M2395 730 c3 -5 10 -10 16 -10 5 0 9 5 9 10 0 6 -7 10 -16 10 -8 0
-12 -4 -9 -10z"/>
<path d="M165 720 c28 -12 78 -12 70 0 -3 6 -25 10 -48 9 -33 0 -38 -2 -22 -9z"/>
<path d="M1032 690 c0 -19 2 -27 5 -17 2 9 2 25 0 35 -3 9 -5 1 -5 -18z"/>
<path d="M2033 563 c9 -2 25 -2 35 0 9 3 1 5 -18 5 -19 0 -27 -2 -17 -5z"/>
<path d="M738 553 c7 -3 16 -2 19 1 4 3 -2 6 -13 5 -11 0 -14 -3 -6 -6z"/>
<path d="M1808 553 c6 -2 18 -2 25 0 6 3 1 5 -13 5 -14 0 -19 -2 -12 -5z"/>
<path d="M1028 523 c6 -2 18 -2 25 0 6 3 1 5 -13 5 -14 0 -19 -2 -12 -5z"/>
<path d="M1800 516 c0 -2 11 -6 25 -8 13 -3 22 -1 19 3 -5 9 -44 13 -44 5z"/>
</g>
</svg>
