<?xml version="1.0" standalone="no"?>
<!DOCTYPE svg PUBLIC "-//W3C//DTD SVG 20010904//EN"
 "http://www.w3.org/TR/2001/REC-SVG-20010904/DTD/svg10.dtd">
<svg version="1.0" xmlns="http://www.w3.org/2000/svg"
 width="317.000000pt" height="159.000000pt" viewBox="0 0 317.000000 159.000000"
 preserveAspectRatio="xMidYMid meet">

<g transform="translate(0.000000,159.000000) scale(0.100000,-0.100000)"
fill="#000000" stroke="none">
<path d="M1215 1294 c-347 -37 -459 -66 -608 -158 -50 -31 -217 -174 -217
-186 0 -6 -46 -10 -109 -10 -128 0 -161 -9 -161 -44 0 -28 16 -36 75 -36 55 0
105 -10 105 -21 0 -5 -31 -29 -68 -54 -100 -65 -123 -89 -119 -122 2 -16 7
-35 12 -42 5 -10 4 -12 -3 -7 -7 4 -12 3 -12 -2 0 -6 -11 -13 -25 -16 -46 -12
-42 -86 5 -101 11 -4 27 -19 35 -35 10 -19 25 -30 50 -34 29 -6 35 -11 35 -31
0 -13 10 -50 22 -82 12 -32 21 -61 20 -65 -1 -5 1 -7 6 -6 4 0 23 -6 42 -14
26 -11 91 -17 250 -22 295 -8 817 -46 924 -67 57 -11 699 -14 816 -4 41 3 104
10 140 15 36 5 92 11 125 14 67 5 174 31 188 45 9 9 -78 41 -111 41 -8 0 3 12
24 26 21 14 46 34 54 44 10 12 42 21 98 28 46 7 88 14 93 17 12 8 12 42 -1 50
-15 10 -12 23 8 29 9 3 18 17 18 31 3 42 12 55 39 55 15 0 24 4 21 9 -4 5 7
12 23 16 22 5 30 13 33 35 3 16 0 35 -6 41 -8 9 -8 10 1 5 9 -5 11 -2 6 10 -5
14 -18 15 -95 11 -84 -5 -114 0 -52 8 33 4 85 23 67 24 -8 1 -13 16 -13 43 0
33 -3 39 -12 30 -32 -32 -89 6 -108 73 -7 25 -15 43 -18 40 -3 -3 -15 4 -26
14 -12 11 -46 29 -76 41 -47 18 -81 22 -235 26 -154 3 -175 2 -147 -9 18 -7
31 -15 27 -18 -3 -3 16 -14 42 -24 69 -25 213 -101 248 -130 25 -21 28 -27 15
-35 -12 -8 -12 -10 -1 -10 32 0 0 -11 -40 -14 -24 -2 -37 -2 -27 1 22 6 32 33
12 33 -9 0 -12 -5 -8 -11 5 -8 -1 -10 -20 -7 -22 4 -24 3 -14 -9 9 -11 7 -15
-12 -20 -22 -6 -23 -7 -4 -13 23 -9 -141 -24 -185 -18 -17 2 -28 1 -25 -4 3
-4 -28 -8 -70 -8 -50 0 -76 -4 -79 -12 -3 -7 -6 -8 -6 -2 -1 6 -14 9 -30 6
-16 -2 -37 1 -48 7 -15 9 -12 10 19 11 33 0 39 4 44 28 4 15 12 30 18 34 8 5
7 8 -1 8 -7 0 -10 7 -6 17 4 11 3 14 -5 9 -7 -4 -12 -16 -12 -26 0 -25 -28
-40 -62 -33 -55 10 -105 132 -77 184 11 22 11 23 -4 10 -10 -7 -17 -9 -17 -4
0 16 -135 34 -321 43 -94 4 -173 11 -176 14 -7 6 127 12 207 9 25 -1 117 -4
205 -6 88 -2 202 -12 254 -21 51 -9 95 -15 98 -13 2 2 -57 17 -131 33 -74 16
-132 32 -130 36 3 4 -1 5 -9 2 -8 -3 -18 -1 -22 5 -3 6 -18 11 -33 10 -24 0
-25 -1 -7 -9 19 -8 19 -9 -1 -9 -13 -1 -24 6 -27 18 -3 13 -17 20 -53 25 -49
6 -50 7 -93 81 -25 41 -48 75 -53 75 -5 0 2 -15 15 -32 13 -18 35 -53 48 -78
13 -25 28 -48 33 -51 12 -9 -4 -15 -46 -18 -20 -1 -39 3 -43 8 -3 6 -13 7 -22
4 -10 -4 -14 -2 -10 4 11 18 -65 26 -129 14 -32 -6 -65 -11 -75 -11 -16 0 -79
87 -79 109 0 12 56 31 91 31 32 0 47 15 23 24 -8 3 -13 10 -9 15 3 6 -12 12
-32 14 -32 3 -30 4 14 5 28 1 59 -1 67 -4 15 -6 15 -8 -1 -20 -16 -12 -13 -13
27 -8 50 7 65 14 32 14 -11 0 -24 5 -28 12 -5 8 7 10 44 5 70 -8 66 9 -8 37
-8 3 8 4 35 2 l50 -5 -55 15 c-55 14 -352 27 -435 18z m252 -110 c-3 -3 -12
-4 -19 -1 -8 3 -5 6 6 6 11 1 17 -2 13 -5z m-477 -34 c0 -18 -7 -20 -54 -20
-63 0 -73 -9 -85 -75 -9 -50 -22 -65 -58 -65 -27 0 -31 17 -5 23 9 3 -2 5 -25
6 l-43 1 0 53 c0 28 4 57 8 64 12 19 73 31 170 32 86 1 92 0 92 -19z m68 -19
c16 -51 15 -59 -5 -63 -20 -4 -43 38 -43 78 0 41 35 31 48 -15z m135 18 l39
-10 -46 -30 c-53 -33 -73 -38 -36 -9 l25 21 -27 -7 c-17 -4 -28 -2 -28 4 0 6
-3 17 -6 26 -7 19 22 21 79 5z m-529 -86 c-4 -27 -11 -49 -15 -51 -5 -2 -9
-10 -9 -18 0 -10 -15 -14 -57 -15 -32 0 -66 -2 -76 -4 -18 -3 -18 -3 0 17 24
27 143 118 155 118 5 0 6 -20 2 -47z m731 -23 c-7 -11 -55 17 -55 33 0 5 8 16
18 23 15 11 19 9 30 -17 7 -17 10 -34 7 -39z m-315 10 c0 -5 -5 -10 -11 -10
-5 0 -7 5 -4 10 3 6 8 10 11 10 2 0 4 -4 4 -10z m140 -33 c0 -8 -11 -19 -25
-25 -31 -14 -33 0 -2 21 28 20 27 20 27 4z m379 -3 c10 -9 -45 -3 -59 6 -11 7
-5 8 20 4 19 -4 37 -8 39 -10z m254 -1 c-7 -2 -19 -2 -25 0 -7 3 -2 5 12 5 14
0 19 -2 13 -5z m-1093 -13 c0 -5 -4 -10 -10 -10 -5 0 -10 5 -10 10 0 6 5 10
10 10 6 0 10 -4 10 -10z m1115 0 c-3 -6 -42 -9 -88 -8 l-82 2 85 6 c47 3 86 7
88 8 2 1 0 -2 -3 -8z m-660 -20 c-3 -5 -12 -10 -18 -10 -7 0 -6 4 3 10 19 12
23 12 15 0z m-870 -60 c-3 -5 -18 -9 -33 -9 l-27 1 30 8 c17 4 31 8 33 9 2 0
0 -3 -3 -9z m2052 4 c-3 -3 -12 -4 -19 -1 -8 3 -5 6 6 6 11 1 17 -2 13 -5z
m-1972 -52 c-6 -5 -22 -13 -36 -19 -20 -9 -26 -8 -26 3 0 7 4 11 8 9 4 -3 18
-1 31 4 30 12 34 13 23 3z m-95 -46 c0 -2 -8 -10 -17 -17 -16 -13 -17 -12 -4
4 13 16 21 21 21 13z m960 -16 c0 -5 -4 -10 -10 -10 -5 0 -10 5 -10 10 0 6 5
10 10 10 6 0 10 -4 10 -10z m1502 -28 c3 -4 1 -12 -6 -18 -10 -9 -20 -4 -46
22 l-33 34 39 -16 c21 -9 42 -19 46 -22z m-1412 -2 c-18 -12 -30 -13 -30 -2 0
4 10 9 22 9 18 2 20 0 8 -7z m-1110 -20 c0 -5 -5 -10 -11 -10 -5 0 -7 5 -4 10
3 6 8 10 11 10 2 0 4 -4 4 -10z m2485 -40 c3 -5 2 -10 -4 -10 -5 0 -13 5 -16
10 -3 6 -2 10 4 10 5 0 13 -4 16 -10z m-101 -71 l131 -2 -160 -13 c-88 -6
-176 -13 -195 -14 l-35 -2 30 -7 c22 -5 8 -9 -55 -13 -50 -4 -86 -3 -88 3 -2
5 -17 9 -33 9 -34 0 -30 19 4 21 12 1 4 5 -18 10 -24 4 19 6 105 4 91 -2 130
0 105 5 -34 7 -31 7 19 4 32 -2 118 -5 190 -5z m-1037 -10 c130 -49 167 -292
58 -388 -48 -42 -85 -47 -141 -21 -87 42 -133 171 -100 282 19 65 48 105 90
124 38 16 57 17 93 3z m-1246 -36 l24 -28 -27 24 c-59 52 -117 -14 -118 -132
0 -84 46 -177 88 -177 9 0 3 11 -16 28 -36 33 -50 71 -31 83 10 6 19 -2 31
-28 10 -20 15 -40 11 -46 -4 -6 0 -8 10 -4 12 4 17 1 17 -10 0 -14 3 -14 23 3
20 17 20 16 -2 -9 -31 -35 -60 -34 -94 1 -34 36 -47 79 -47 160 0 70 20 124
54 147 30 22 49 18 77 -12z m1839 17 c0 -6 -23 -9 -52 -9 -45 1 -49 2 -23 9
44 11 75 11 75 0z m91 -54 c-9 -11 -9 -15 1 -18 7 -3 -2 -7 -20 -10 -25 -4
-32 -1 -27 9 3 8 5 19 5 24 0 5 12 9 26 9 22 0 24 -3 15 -14z m-91 -11 c10
-12 10 -15 -2 -15 -8 0 -15 7 -15 15 0 8 1 15 2 15 2 0 8 -7 15 -15z m665 -72
c-1 -16 -7 -40 -13 -54 -10 -24 -15 -26 -134 -37 -217 -21 -218 -21 -198 47
13 46 23 50 105 52 39 1 97 5 130 9 112 14 113 13 110 -17z m-505 -30 c0 -15
-2 -16 -10 -3 -5 8 -10 10 -10 4 0 -7 -7 -15 -16 -18 -10 -4 -13 -2 -9 7 4 6
0 4 -8 -5 -16 -21 -71 -25 -64 -5 2 6 13 11 23 9 18 -3 18 -3 -1 12 -19 14
-16 15 38 16 48 0 57 -3 57 -17z m-1717 -110 c-5 -14 -2 -15 28 -9 66 14 155
16 259 4 58 -6 124 -11 147 -10 23 1 45 -2 48 -8 4 -7 -55 -10 -172 -11 -98
-1 -222 -4 -276 -8 -101 -6 -102 -6 -91 37 5 16 14 22 35 22 22 0 27 -4 22
-17z m732 -33 c3 -5 -1 -10 -10 -10 -9 0 -13 5 -10 10 3 6 8 10 10 10 2 0 7
-4 10 -10z m980 -41 l30 -21 -169 6 c-93 3 -208 6 -255 7 -126 1 -87 8 95 18
262 13 266 13 299 -10z"/>
<path d="M1506 609 c-46 -36 -60 -76 -60 -170 -1 -77 2 -89 26 -127 16 -23 43
-49 60 -57 l33 -16 -27 21 c-15 11 -36 46 -47 76 -53 141 -4 269 109 287 14 2
4 5 -21 6 -33 1 -54 -5 -73 -20z"/>
<path d="M1530 560 c-70 -75 -53 -232 30 -275 38 -20 71 -20 64 0 -4 10 0 15
16 15 14 0 19 -4 14 -12 -5 -8 0 -7 11 2 26 21 55 89 55 129 1 133 -116 220
-190 141z m48 -135 c-3 -3 -9 2 -12 12 -6 14 -5 15 5 6 7 -7 10 -15 7 -18z
m67 -84 c3 -5 1 -12 -5 -16 -5 -3 -10 1 -10 9 0 18 6 21 15 7z"/>
<path d="M2776 482 c-3 -6 -15 -8 -26 -5 -11 3 -20 0 -20 -6 0 -5 7 -8 15 -5
10 4 15 0 16 -12 0 -15 2 -15 6 -4 3 8 11 18 17 22 6 4 8 10 4 13 -3 4 -9 2
-12 -3z"/>
<path d="M2801 474 c0 -11 3 -14 6 -6 3 7 2 16 -1 19 -3 4 -6 -2 -5 -13z"/>
<path d="M2685 470 c-3 -5 1 -10 10 -10 9 0 13 5 10 10 -3 6 -8 10 -10 10 -2
0 -7 -4 -10 -10z"/>
<path d="M2821 464 c0 -11 3 -14 6 -6 3 7 2 16 -1 19 -3 4 -6 -2 -5 -13z"/>
<path d="M2585 439 c-4 -17 -4 -33 -1 -36 3 -4 6 1 6 10 0 10 4 17 10 17 5 0
7 6 4 14 -3 8 2 16 13 19 15 4 14 5 -4 6 -16 1 -23 -6 -28 -30z"/>
<path d="M2648 463 c9 -4 10 -8 2 -18 -8 -9 -8 -15 0 -20 5 -3 10 -2 10 4 0 5
3 16 6 25 4 11 1 16 -12 15 -12 0 -14 -3 -6 -6z"/>
<path d="M2780 449 c0 -23 -48 -31 -53 -10 -3 11 -5 10 -6 -5 -1 -17 5 -21 29
-21 17 0 30 4 30 8 0 4 9 5 20 2 12 -3 20 0 20 6 0 7 -4 10 -9 6 -6 -3 -14 3
-20 12 -9 16 -10 16 -11 2z"/>
<path d="M2683 438 c-22 -29 -24 -38 -8 -38 9 0 13 5 10 10 -4 6 -1 17 5 25 7
8 10 15 7 15 -2 0 -9 -6 -14 -12z"/>
<path d="M2628 403 c7 -3 16 -2 19 1 4 3 -2 6 -13 5 -11 0 -14 -3 -6 -6z"/>
<path d="M1985 1040 c3 -5 15 -15 26 -20 15 -9 19 -7 19 5 0 9 -4 13 -10 10
-5 -3 -10 -1 -10 4 0 6 -7 11 -16 11 -8 0 -12 -4 -9 -10z"/>
<path d="M2813 925 c-8 -23 0 -24 20 -3 14 15 15 18 2 18 -9 0 -18 -7 -22 -15z"/>
<path d="M2865 840 c-4 -6 -4 -10 -1 -10 2 0 11 -3 20 -6 9 -3 16 -2 16 4 0
14 -28 23 -35 12z"/>
<path d="M2630 741 c0 -6 4 -13 10 -16 6 -3 7 1 4 9 -7 18 -14 21 -14 7z"/>
<path d="M2271 706 c2 -2 15 -9 29 -15 24 -11 24 -11 6 3 -16 13 -49 24 -35
12z"/>
</g>
</svg>
