<?xml version="1.0" standalone="no"?>
<!DOCTYPE svg PUBLIC "-//W3C//DTD SVG 20010904//EN"
 "http://www.w3.org/TR/2001/REC-SVG-20010904/DTD/svg10.dtd">
<svg version="1.0" xmlns="http://www.w3.org/2000/svg"
 width="300.000000pt" height="168.000000pt" viewBox="0 0 300.000000 168.000000"
 preserveAspectRatio="xMidYMid meet">

<g transform="translate(0.000000,168.000000) scale(0.100000,-0.100000)"
fill="#000000" stroke="none">
<path d="M1495 1603 c-37 -9 -39 -22 -3 -17 33 6 36 4 47 -26 14 -41 14 -41
-4 -34 -9 4 -15 0 -15 -10 0 -9 5 -16 10 -16 6 0 10 -5 10 -12 0 -6 -7 -4 -18
5 -10 10 -25 17 -32 17 -9 0 -7 5 6 14 18 14 18 15 0 22 -17 7 -17 8 5 20 13
7 20 13 14 13 -19 1 -40 -18 -40 -36 0 -10 -4 -24 -8 -30 -10 -15 8 -51 37
-74 16 -13 25 -14 44 -6 13 6 21 16 18 24 -3 8 -2 12 3 9 11 -7 41 55 41 86 0
12 -4 29 -9 36 -9 15 -74 24 -106 15z"/>
<path d="M1280 1364 c0 -11 8 -14 32 -12 46 4 49 28 4 28 -26 0 -36 -4 -36
-16z m53 -1 c-7 -2 -19 -2 -25 0 -7 3 -2 5 12 5 14 0 19 -2 13 -5z"/>
<path d="M1361 1363 c0 -11 3 -13 6 -5 2 6 13 12 23 12 10 0 21 -6 23 -12 3
-8 6 -6 6 5 1 12 -7 17 -29 17 -22 0 -30 -5 -29 -17z"/>
<path d="M1430 1364 c0 -11 8 -14 32 -12 46 4 49 28 4 28 -26 0 -36 -4 -36
-16z m43 -1 c-7 -2 -19 -2 -25 0 -7 3 -2 5 12 5 14 0 19 -2 13 -5z"/>
<path d="M1510 1371 c0 -5 13 -11 28 -13 19 -3 29 0 29 9 0 8 -12 13 -29 13
-15 0 -28 -4 -28 -9z"/>
<path d="M1580 1366 c0 -8 4 -18 10 -21 5 -3 7 0 4 9 -4 10 3 16 23 19 27 4
27 4 -4 6 -23 1 -33 -4 -33 -13z"/>
<path d="M1650 1365 c0 -5 14 -10 30 -10 17 0 30 5 30 10 0 6 -13 10 -30 10
-16 0 -30 -4 -30 -10z"/>
<path d="M1720 1367 c0 -9 10 -12 30 -9 17 2 30 8 30 13 0 5 -13 9 -30 9 -18
0 -30 -5 -30 -13z"/>
<path d="M1190 1306 c0 -8 4 -17 9 -20 5 -4 7 3 4 14 -6 23 -13 26 -13 6z"/>
<path d="M1229 1307 c6 -8 7 -17 3 -21 -4 -4 5 -2 21 5 29 13 36 26 12 26 -8
0 -12 -4 -9 -9 3 -4 0 -8 -5 -8 -6 0 -11 5 -11 10 0 6 -5 10 -11 10 -8 0 -9
-4 0 -13z"/>
<path d="M1303 1300 c1 -12 7 -18 14 -16 7 3 13 1 13 -5 0 -6 5 -7 10 -4 6 4
7 11 4 17 -4 6 0 6 13 -1 20 -10 33 -6 33 12 0 5 -16 7 -35 5 -19 -2 -35 0
-35 4 0 4 -4 8 -9 8 -6 0 -9 -9 -8 -20z"/>
<path d="M1420 1306 c0 -8 5 -18 12 -22 7 -4 8 -3 4 4 -4 7 -2 12 3 12 6 0 11
-4 11 -8 0 -5 7 -9 15 -9 8 0 15 5 15 11 0 6 4 5 9 -3 8 -12 12 -13 25 -1 14
11 16 10 10 -5 -5 -13 -3 -16 7 -13 8 3 13 11 11 18 -2 10 0 11 10 2 8 -6 19
-7 28 -2 8 5 18 6 22 4 4 -3 8 -1 8 5 0 6 -32 10 -84 9 -46 0 -88 2 -95 6 -6
4 -11 1 -11 -8z"/>
<path d="M1637 1306 c-7 -17 -4 -18 38 -18 45 0 55 2 55 11 0 4 -10 8 -22 7
-13 -1 -27 3 -31 9 -6 6 -10 5 -14 -4 -4 -10 -7 -10 -13 -1 -5 8 -9 7 -13 -4z"/>
<path d="M1743 1306 c3 -23 54 -33 54 -10 0 17 -37 19 -38 2 0 -7 -5 -4 -10 7
-8 18 -9 18 -6 1z"/>
<path d="M1813 1305 c0 -8 6 -16 14 -16 7 -1 18 -2 23 -3 6 -1 9 4 8 9 -1 6
-8 9 -15 7 -7 -2 -13 2 -13 8 0 5 -4 10 -8 10 -5 0 -9 -7 -9 -15z"/>
<path d="M1401 1294 c0 -11 3 -14 6 -6 3 7 2 16 -1 19 -3 4 -6 -2 -5 -13z"/>
<path d="M1081 1089 c-189 -24 -295 -74 -414 -192 -43 -43 -76 -81 -73 -85 4
-3 13 3 21 14 8 10 15 14 15 7 0 -6 12 -16 28 -21 22 -9 23 -11 6 -11 -11 -1
-25 4 -30 9 -7 7 -16 4 -29 -10 -16 -18 -17 -23 -5 -30 11 -7 11 -10 3 -11
-22 -3 -27 -4 -71 -27 -43 -23 -74 -46 -119 -91 -19 -18 -24 -31 -20 -54 3
-23 0 -31 -15 -35 -43 -11 -30 -84 17 -96 14 -4 23 -11 20 -16 -3 -5 5 -16 18
-24 16 -11 24 -27 25 -51 l3 -35 -231 0 -230 0 0 -165 0 -165 1500 0 1500 0 0
160 0 160 -142 1 c-79 1 -149 1 -157 -1 -10 -1 -12 6 -6 27 7 30 21 43 47 43
21 0 32 16 17 25 -6 4 -8 20 -5 39 6 29 3 33 -34 49 -39 17 -40 18 -40 67 0
30 -4 50 -11 50 -6 0 -9 -7 -5 -15 3 -8 -2 -19 -12 -24 -12 -8 -13 -10 -3 -11
8 0 12 -2 9 -5 -11 -11 -60 20 -74 46 -19 37 -18 42 6 36 11 -3 23 -1 26 4 3
5 -4 9 -15 9 -12 0 -21 7 -21 15 0 8 6 12 14 9 8 -3 17 -1 21 5 3 6 1 11 -6
11 -9 0 -9 3 0 14 10 11 8 15 -6 20 -56 17 -226 36 -367 41 l-161 6 80 -34
c76 -32 178 -87 163 -87 -9 0 -69 26 -118 50 -19 10 -73 30 -120 46 -47 15
-86 31 -88 36 -2 4 -13 9 -25 9 -16 1 -14 3 8 8 20 4 31 13 33 26 3 29 -8 42
-46 50 -28 6 -34 4 -39 -13 -8 -32 -30 -18 -123 78 -81 84 -88 89 -145 100
-33 7 -71 18 -85 25 -19 10 -66 13 -180 11 -131 -3 -139 -2 -50 3 l105 7 -150
1 c-82 0 -179 -3 -214 -8z m81 -19 c-39 -9 -48 -17 -55 -45 -4 -18 -5 -18 -6
2 -1 27 34 53 69 52 21 -1 20 -2 -8 -9z m371 3 c-7 -2 -19 -2 -25 0 -7 3 -2 5
12 5 14 0 19 -2 13 -5z m-501 -101 c-2 -18 -10 -28 -22 -29 -26 -2 -70 -47
-70 -72 0 -18 -6 -21 -45 -21 -52 0 -61 16 -47 90 9 51 20 57 128 59 l61 1 -5
-28z m46 0 c3 -17 -2 -22 -18 -22 -16 0 -20 4 -16 16 3 9 6 20 6 26 0 19 25 1
28 -20z m631 -28 c18 -30 30 -58 27 -61 -4 -4 -36 -10 -73 -15 -36 -4 -75 -14
-87 -21 -14 -10 -85 -18 -219 -26 -110 -7 -201 -11 -203 -8 -2 2 37 7 88 11
169 13 176 15 180 48 4 21 0 32 -15 40 -16 8 -17 12 -6 19 22 14 23 12 44 -41
17 -43 23 -50 47 -50 l28 0 -29 59 -30 59 22 6 c12 3 32 6 45 6 12 0 22 4 22
9 0 9 33 16 95 19 27 2 34 -5 64 -54z m-898 -16 c-10 -35 -16 -69 -14 -75 6
-16 2 -16 -34 -2 -24 9 -26 12 -11 20 22 12 12 40 -10 32 -9 -3 2 9 26 27 23
17 42 38 42 46 0 8 4 14 9 14 5 0 2 -28 -8 -62z m477 41 c25 -10 24 -11 -49
-59 -40 -27 -78 -49 -83 -49 -5 0 -13 -5 -17 -13 -6 -8 -7 -2 -4 17 3 17 1 50
-4 75 l-10 45 3 -60 c3 -40 2 -52 -4 -35 -11 33 -12 85 -2 94 9 10 135 -2 170
-15z m505 -65 l37 -41 -25 -11 c-21 -10 -25 -9 -25 3 0 8 7 15 16 15 8 0 12 5
9 10 -3 6 -15 10 -25 10 -12 0 -29 16 -45 43 -45 77 -30 70 58 -29z m-1067
-16 c4 -7 4 -10 -1 -6 -5 5 -13 -2 -19 -14 -6 -11 -22 -25 -36 -30 -23 -8 -22
-6 9 26 40 41 38 40 47 24z m1034 -38 c0 -5 -7 -7 -15 -4 -8 4 -15 8 -15 10 0
2 7 4 15 4 8 0 15 -4 15 -10z m150 -31 l35 -7 -40 0 c-42 0 -113 15 -82 17 11
0 15 6 11 12 -4 7 3 6 17 -2 13 -7 40 -16 59 -20z m-170 12 c0 -5 -30 -7 -67
-4 -97 7 -100 11 -10 12 42 1 77 -3 77 -8z m-947 -21 c3 -11 1 -18 -4 -14 -5
3 -9 12 -9 20 0 20 7 17 13 -6z m-35 -7 c-10 -2 -28 -2 -40 0 -13 2 -5 4 17 4
22 1 32 -1 23 -4z m-65 -25 c-2 -5 -10 -8 -18 -8 -8 0 -16 3 -18 8 -3 4 5 7
18 7 13 0 21 -3 18 -7z m972 2 c18 -8 17 -9 -7 -9 -15 -1 -30 4 -33 9 -7 12
12 12 40 0z m333 -25 c112 -25 157 -38 166 -46 15 -13 -6 -11 -54 6 -23 8 -46
12 -52 9 -5 -3 -15 -1 -22 6 -8 6 -26 8 -42 4 -19 -5 -25 -4 -20 5 5 8 -3 10
-28 7 -20 -3 -34 -1 -31 4 3 5 -33 9 -81 8 -47 0 -88 3 -91 6 -12 11 193 4
255 -9z m-588 -5 l25 -8 -25 -1 c-14 0 -32 4 -40 9 -13 9 -13 10 0 9 8 -1 26
-5 40 -9z m150 -20 c11 -7 8 -9 -15 -9 -16 1 -41 5 -55 9 -22 7 -20 8 15 9 22
0 47 -4 55 -9z m321 -23 c47 -39 62 -94 39 -138 -20 -37 -94 -18 -123 31 -24
40 -21 65 11 89 18 13 22 21 12 21 -10 1 -9 4 5 10 28 12 27 12 56 -13z m326
-13 c-3 -3 -12 -4 -19 -1 -8 3 -5 6 6 6 11 1 17 -2 13 -5z m-772 -24 c3 -5 -1
-10 -10 -10 -9 0 -13 5 -10 10 3 6 8 10 10 10 2 0 7 -4 10 -10z m1055 1 c0 -5
-6 -11 -13 -14 -8 -3 -14 1 -14 9 0 8 6 14 14 14 7 0 13 -4 13 -9z m-1727 -27
c3 -3 3 -13 0 -21 -5 -12 -7 -12 -14 -1 -15 23 -4 40 14 22z m1557 -74 c24
-15 7 -18 -20 -3 -14 7 -18 13 -10 13 8 0 22 -4 30 -10z m-1555 -20 c3 -5 1
-10 -4 -10 -6 0 -11 5 -11 10 0 6 2 10 4 10 3 0 8 -4 11 -10z m-78 -16 c-3 -3
-12 -4 -19 -1 -8 3 -5 6 6 6 11 1 17 -2 13 -5z m-128 -50 c-4 -5 -5 -21 -2
-35 3 -13 3 -21 -1 -17 -10 8 -16 80 -8 92 3 5 9 1 12 -10 4 -10 4 -24 -1 -30z
m41 4 c0 -18 -2 -20 -9 -8 -6 8 -7 18 -5 22 9 14 14 9 14 -14z m828 4 c-16 -9
-28 -20 -28 -24 0 -3 -8 -14 -17 -24 -13 -13 -18 -34 -18 -74 0 -71 33 -121
97 -143 29 -11 36 -16 21 -16 -12 -1 -39 8 -60 19 l-38 21 30 -25 c25 -22 26
-25 7 -19 -26 6 -79 64 -93 100 -12 33 -11 92 4 127 12 27 13 22 11 -45 -3
-72 -2 -72 5 -19 4 31 13 65 19 77 14 25 60 63 76 63 6 0 -1 -8 -16 -18z m78
-29 c-4 -16 -9 -36 -12 -46 -8 -27 24 -32 56 -8 36 26 36 26 43 1 4 -16 0 -20
-19 -21 -40 -2 -42 -3 -64 -26 -11 -13 -25 -23 -31 -23 -17 0 -22 31 -9 56 10
18 11 30 2 49 -17 38 -15 45 14 45 23 0 25 -3 20 -27z m-1002 -22 c-4 -24 -2
-41 5 -45 6 -4 11 -18 11 -31 0 -13 7 -31 16 -39 8 -9 12 -16 7 -16 -18 0 -35
18 -38 41 -2 13 -7 36 -11 51 -6 27 1 78 11 78 3 0 2 -17 -1 -39z m2043 13
c-3 -3 -12 -4 -19 -1 -8 3 -5 6 6 6 11 1 17 -2 13 -5z m-469 -11 c-10 -2 -26
-2 -35 0 -10 3 -2 5 17 5 19 0 27 -2 18 -5z m642 -12 c0 -13 -64 -21 -167 -21
-105 0 -136 17 -41 23 133 7 208 7 208 -2z m-1285 -26 c0 -10 -7 -20 -15 -22
-12 -4 -12 -3 -2 5 11 7 8 11 -10 16 -19 5 -20 8 -8 16 20 13 35 7 35 -15z
m485 -1 c0 -8 -6 -13 -12 -11 -16 3 -28 19 -22 29 7 11 34 -3 34 -18z m-1320
4 c0 -11 -12 -10 -30 2 -12 7 -10 9 8 7 12 0 22 -5 22 -9z m1423 -1 c4 -10 -7
-14 -39 -16 -36 -1 -43 1 -38 14 8 19 70 21 77 2z m347 3 c-20 -13 -40 -13
-40 0 0 6 12 10 28 10 21 0 24 -2 12 -10z m-1813 -62 c-3 -7 -5 -2 -5 12 0 14
2 19 5 13 2 -7 2 -19 0 -25z m1013 -61 c0 -6 -13 2 -30 18 -16 16 -30 30 -30
33 0 2 14 -6 30 -18 17 -12 30 -26 30 -33z m-97 -17 c-3 -12 -8 -19 -11 -16
-5 6 5 36 12 36 2 0 2 -9 -1 -20z m72 -40 c-3 -5 -12 -10 -18 -10 -7 0 -6 4 3
10 19 12 23 12 15 0z"/>
<path d="M765 920 c-3 -6 1 -7 9 -4 18 7 21 14 7 14 -6 0 -13 -4 -16 -10z"/>
<path d="M1805 660 c-3 -5 -1 -10 4 -10 6 0 11 5 11 10 0 6 -2 10 -4 10 -3 0
-8 -4 -11 -10z"/>
<path d="M1350 304 c0 -6 7 -19 16 -30 14 -18 14 -18 3 6 -14 31 -19 36 -19
24z"/>
</g>
</svg>
