<?xml version="1.0" standalone="no"?>
<!DOCTYPE svg PUBLIC "-//W3C//DTD SVG 20010904//EN"
 "http://www.w3.org/TR/2001/REC-SVG-20010904/DTD/svg10.dtd">
<svg version="1.0" xmlns="http://www.w3.org/2000/svg"
 width="271.000000pt" height="186.000000pt" viewBox="0 0 271.000000 186.000000"
 preserveAspectRatio="xMidYMid meet">

<g transform="translate(0.000000,186.000000) scale(0.100000,-0.100000)"
fill="#000000" stroke="none">
<path d="M1145 1673 c-140 -13 -266 -34 -303 -48 -41 -17 -42 -18 -42 -64 0
-79 29 -253 46 -279 16 -24 19 -25 98 -18 44 3 151 17 236 30 100 16 158 21
166 15 7 -6 15 -4 23 5 13 15 194 42 211 31 6 -4 17 -2 24 4 7 6 24 11 37 10
47 -1 119 14 113 23 -3 5 -13 7 -22 3 -9 -3 -13 -3 -10 1 10 9 -11 46 -21 39
-10 -5 -63 60 -55 67 2 3 -4 11 -13 19 -16 12 -17 12 -8 -1 6 -9 0 -5 -12 9
-12 14 -20 28 -18 31 2 4 -23 33 -56 66 l-60 59 -147 1 c-81 1 -165 0 -187 -3z
m191 -24 c3 -5 27 -9 53 -9 l48 0 51 -92 c74 -134 76 -144 26 -112 -16 11 -36
15 -60 11 -19 -3 -62 -1 -95 5 -55 9 -61 13 -79 49 -24 47 -24 46 0 52 12 3
20 14 20 26 0 18 -6 21 -40 21 -22 0 -40 2 -40 4 0 2 -3 11 -6 19 -3 9 2 17
13 21 10 3 -4 3 -32 1 -127 -12 -185 -25 -240 -52 -33 -17 -72 -33 -88 -37
-26 -6 -27 -7 -13 -34 8 -16 22 -34 30 -41 9 -8 16 -20 16 -28 0 -8 9 -28 21
-44 11 -16 18 -29 14 -29 -3 0 6 -20 20 -45 14 -25 25 -48 25 -50 0 -3 -15 -5
-32 -5 -30 0 -35 5 -61 60 -40 87 -74 252 -53 261 0 0 21 3 46 5 25 3 50 10
57 16 7 5 17 7 24 3 6 -4 14 -2 18 4 15 23 343 42 357 20z m-152 -37 c10 -17
-30 -39 -62 -34 -39 5 -41 15 -4 29 34 14 59 15 66 5z m436 -153 c27 -31 37
-50 27 -46 -10 4 -29 7 -43 7 -18 0 -29 11 -49 50 -14 28 -23 55 -20 61 4 5 2
8 -4 7 -6 -2 -22 17 -37 42 l-26 45 54 -57 c29 -31 73 -81 98 -109z m-60 126
c19 -19 32 -35 29 -35 -3 0 -20 16 -39 35 -19 19 -32 35 -29 35 3 0 20 -16 39
-35z m-345 -72 c4 -50 -38 -41 -50 10 -7 27 -6 28 20 25 23 -2 28 -8 30 -35z
m102 -179 c-3 -3 -12 -4 -19 -1 -8 3 -5 6 6 6 11 1 17 -2 13 -5z"/>
<path d="M492 1598 c-73 -28 -142 -94 -142 -136 0 -26 7 -36 33 -52 30 -19
224 -86 367 -128 l66 -19 -19 126 c-32 224 -29 215 -57 222 -56 15 -194 8
-248 -13z m225 -4 c41 -11 14 -32 -40 -31 -29 0 -69 -4 -89 -8 -34 -6 -38 -5
-38 12 0 11 3 23 7 26 8 9 130 9 160 1z m-222 -37 c-5 -11 -65 -32 -65 -21 0
4 65 43 67 40 2 -2 1 -10 -2 -19z m118 -37 c-3 -11 -16 -23 -30 -26 -32 -9
-42 3 -12 15 22 9 22 10 4 12 -14 1 -11 4 10 9 17 4 31 8 32 9 0 0 -1 -8 -4
-19z m-126 -17 c6 -17 -65 -29 -80 -14 -9 9 -8 14 3 22 20 12 72 7 77 -8z
m116 -50 c-7 -2 -19 -2 -25 0 -7 3 -2 5 12 5 14 0 19 -2 13 -5z"/>
<path d="M1645 1323 c-139 -17 -305 -47 -294 -53 18 -10 308 35 322 49 6 6 9
10 7 10 -3 -1 -18 -4 -35 -6z"/>
<path d="M433 1292 c-28 -4 -29 -22 -3 -50 25 -26 32 -28 23 -5 -5 12 -2 15
10 10 24 -9 28 5 9 29 -11 12 -26 19 -39 16z"/>
<path d="M173 1258 c-6 -13 -7 -44 -3 -73 4 -27 8 -38 9 -22 1 30 21 38 21 8
0 -10 7 -38 16 -62 10 -27 16 -75 16 -124 0 -44 4 -87 9 -97 15 -28 59 -45
131 -50 39 -3 84 -14 105 -25 59 -32 117 -64 128 -73 6 -5 44 -26 85 -48 120
-63 274 -148 304 -167 15 -10 48 -49 72 -86 72 -108 129 -142 274 -159 52 -6
115 -15 140 -21 223 -50 303 -49 515 6 77 21 154 41 171 45 87 21 266 126 298
176 30 45 18 118 -33 204 -33 55 -47 70 -59 65 -10 -3 -67 -22 -129 -40 -177
-54 -352 -86 -498 -92 l-130 -5 -127 46 c-70 25 -130 46 -135 46 -4 0 -19 21
-33 48 -54 103 -149 178 -237 188 -43 6 -51 3 -75 -21 -32 -31 -52 -109 -47
-178 5 -53 -1 -56 -51 -26 -39 24 -454 251 -512 280 -31 16 -40 29 -64 91 -53
141 -85 188 -127 188 -15 0 -28 -8 -34 -22z m310 -342 c26 -15 47 -32 47 -38
0 -10 -11 -5 -55 28 -17 12 -42 27 -58 33 -15 6 -27 16 -27 22 0 8 7 6 23 -3
12 -8 43 -27 70 -42z m312 -178 c175 -96 171 -94 163 -103 -11 -11 -385 202
-410 233 -7 9 14 1 47 -18 33 -19 123 -69 200 -112z"/>
<path d="M1011 1204 c0 -11 3 -14 6 -6 3 7 2 16 -1 19 -3 4 -6 -2 -5 -13z"/>
<path d="M2528 1033 c7 -3 16 -2 19 1 4 3 -2 6 -13 5 -11 0 -14 -3 -6 -6z"/>
<path d="M1700 890 c-25 -22 -20 -26 11 -9 11 5 28 9 37 7 13 -3 10 -8 -13
-21 l-30 -17 35 2 c26 2 35 -1 38 -14 3 -15 -4 -18 -48 -18 -42 0 -51 3 -46
15 3 9 0 15 -8 15 -15 0 -27 -45 -19 -67 4 -10 8 -9 20 2 8 8 22 15 31 15 20
-1 52 -23 52 -37 0 -17 -35 -43 -58 -43 -25 0 -29 -15 -7 -24 18 -6 45 2 45
15 0 4 6 6 14 3 8 -3 22 9 36 31 30 48 23 110 -15 142 -32 28 -45 29 -75 3z"/>
<path d="M2220 840 c8 -5 11 -10 5 -10 -11 0 15 -20 27 -20 3 0 4 9 1 20 -3
12 -14 20 -27 20 -17 0 -18 -2 -6 -10z"/>
<path d="M1591 792 c-1 -15 26 -82 33 -82 3 0 -1 15 -8 33 -7 17 -16 39 -19
47 -3 10 -6 10 -6 2z"/>
<path d="M1625 770 c3 -5 8 -10 11 -10 2 0 4 5 4 10 0 6 -5 10 -11 10 -5 0 -7
-4 -4 -10z"/>
<path d="M1940 715 c13 -14 26 -25 28 -25 3 0 -5 11 -18 25 -13 14 -26 25 -28
25 -3 0 5 -11 18 -25z"/>
</g>
</svg>
