<?xml version="1.0" standalone="no"?>
<!DOCTYPE svg PUBLIC "-//W3C//DTD SVG 20010904//EN"
 "http://www.w3.org/TR/2001/REC-SVG-20010904/DTD/svg10.dtd">
<svg version="1.0" xmlns="http://www.w3.org/2000/svg"
 width="275.000000pt" height="183.000000pt" viewBox="0 0 275.000000 183.000000"
 preserveAspectRatio="xMidYMid meet">

<g transform="translate(0.000000,183.000000) scale(0.100000,-0.100000)"
fill="#000000" stroke="none">
<path d="M849 1506 c-2 -2 -24 -6 -49 -9 -25 -3 -54 -8 -65 -11 -11 -2 -23 -5
-27 -5 -5 -1 -8 -8 -8 -17 0 -12 -11 -15 -57 -14 -61 2 -80 -1 -100 -13 -7 -5
-18 -5 -25 -1 -7 5 -8 3 -3 -6 6 -9 2 -10 -15 -5 -15 5 -20 4 -16 -4 6 -10 -6
-15 -26 -12 -5 0 -8 -4 -8 -10 0 -5 -4 -8 -9 -5 -5 3 -15 -2 -22 -11 -12 -15
-12 -16 1 -8 8 5 23 11 34 12 14 3 16 0 8 -9 -6 -7 -13 -31 -16 -53 l-6 -40
11 35 c5 19 13 42 16 50 3 8 5 19 4 23 -1 5 8 5 20 2 16 -5 19 -4 14 5 -5 8
-4 11 2 7 13 -8 113 15 113 25 0 5 15 8 34 8 34 0 35 -1 39 -42 l4 -43 3 45
c3 41 4 39 10 -25 l7 -70 0 83 c0 45 4 86 8 90 5 4 5 1 1 -5 -4 -7 -3 -13 2
-13 5 0 7 -11 5 -23 l-5 -24 139 -6 c140 -6 183 -13 183 -27 0 -5 -41 -38 -91
-75 -72 -53 -96 -65 -115 -61 -14 4 -24 2 -24 -4 0 -5 14 -10 31 -10 27 0 30
-2 19 -15 -7 -8 -16 -12 -21 -9 -5 3 -9 1 -9 -4 0 -14 26 -33 33 -25 4 3 7 1
7 -5 0 -7 -8 -12 -17 -12 -14 0 -15 -2 -4 -9 11 -7 11 -9 0 -14 -8 -3 32 -5
88 -5 56 0 106 -2 111 -6 5 -3 69 1 143 8 166 17 201 18 193 4 -4 -7 11 -8 47
-3 164 23 215 22 338 -10 53 -13 97 -22 99 -20 2 2 -49 20 -112 41 -64 21
-116 41 -116 44 0 3 14 7 32 8 39 3 51 12 15 12 -14 0 -29 5 -32 10 -3 6 3 10
14 10 15 0 19 5 14 16 -4 11 -14 14 -34 10 -24 -5 -38 6 -121 90 -51 52 -94
99 -96 105 -9 23 23 4 85 -53 l68 -62 -55 58 c-71 74 -93 85 -209 102 -85 12
-471 20 -482 10z m339 -46 c19 -25 21 -33 11 -51 -10 -20 -9 -21 12 -15 54 16
189 38 201 33 16 -6 101 -147 94 -155 -4 -3 -30 -6 -59 -7 -52 -2 -137 -27
-165 -49 -10 -7 -13 -6 -10 5 5 22 -62 135 -72 119 -6 -9 -10 -8 -19 6 -21 37
-10 3 18 -55 28 -59 29 -73 1 -84 -8 -3 1 -6 20 -7 34 -2 34 -3 -10 -11 -64
-11 -150 -11 -150 1 0 6 19 7 48 4 28 -3 42 -2 35 3 -13 10 -47 142 -39 151 3
3 0 12 -6 21 -9 12 -7 11 8 -2 13 -11 28 -15 39 -11 15 6 10 14 -30 49 -39 33
-46 45 -41 63 6 18 15 22 49 21 34 0 46 -6 65 -29z m361 -136 c50 -53 89 -100
85 -103 -4 -3 -9 -1 -11 6 -2 7 -11 9 -20 6 -9 -4 -19 1 -25 10 -5 10 -17 17
-26 17 -11 0 -34 29 -64 80 -26 44 -43 80 -38 80 4 0 49 -43 99 -96z m12 -88
c-16 -19 4 -39 32 -34 14 3 32 1 39 -3 8 -6 -5 -9 -33 -9 -38 0 -48 4 -52 20
-4 16 -14 20 -49 21 -32 0 -38 2 -23 9 32 13 97 10 86 -4z m-53 -25 c6 -1 12
-6 12 -12 0 -14 -72 -7 -77 8 -3 8 5 11 24 8 15 -2 34 -4 41 -4z m-158 -22 c0
-5 -13 -9 -29 -9 -17 0 -32 4 -35 9 -3 5 10 9 29 9 19 0 35 -4 35 -9z m30 7
c0 -3 -4 -8 -10 -11 -5 -3 -10 -1 -10 4 0 6 5 11 10 11 6 0 10 -2 10 -4z
m-135 -26 c3 -5 -1 -10 -9 -10 -8 0 -18 5 -21 10 -3 6 1 10 9 10 8 0 18 -4 21
-10z m-300 -20 c-28 -12 -37 -12 -30 0 3 6 16 10 28 9 21 0 21 -1 2 -9z"/>
<path d="M1118 1339 c7 -8 18 -14 25 -14 7 -1 11 -7 9 -15 -3 -12 -1 -12 9 -3
14 14 9 23 -13 27 -7 1 -20 5 -28 10 -12 7 -13 7 -2 -5z"/>
<path d="M660 1415 c0 -8 2 -15 4 -15 2 0 6 7 10 15 3 8 1 15 -4 15 -6 0 -10
-7 -10 -15z"/>
<path d="M645 1350 c-4 -23 -5 -43 -2 -46 2 -3 7 14 11 37 4 23 5 44 2 46 -2
2 -7 -14 -11 -37z"/>
<path d="M691 1334 c0 -11 3 -14 6 -6 3 7 2 16 -1 19 -3 4 -6 -2 -5 -13z"/>
<path d="M630 1271 c0 -11 -6 -22 -12 -24 -8 -3 -6 -6 5 -6 12 -1 17 7 17 24
0 14 -2 25 -5 25 -3 0 -5 -9 -5 -19z"/>
<path d="M745 1253 c4 -21 9 -46 12 -56 4 -16 2 -17 -15 -6 -11 7 -18 20 -15
28 3 11 1 10 -7 -2 -7 -10 -9 -30 -6 -44 5 -16 3 -22 -4 -18 -5 3 -10 1 -10
-4 0 -6 16 -11 36 -11 19 0 33 4 30 8 -3 5 1 9 9 9 8 0 12 -4 9 -9 -3 -4 -3
-8 0 -8 2 0 13 -3 23 -7 16 -6 16 -5 4 10 -12 15 -12 17 2 12 8 -4 18 -2 22 4
3 6 1 11 -4 11 -6 0 -11 4 -11 10 0 16 -61 110 -71 110 -6 0 -7 -16 -4 -37z
m0 -93 c3 -5 1 -10 -4 -10 -6 0 -11 5 -11 10 0 6 2 10 4 10 3 0 8 -4 11 -10z"/>
<path d="M430 1257 c0 -15 -4 -27 -9 -27 -4 0 -6 -11 -3 -25 2 -15 0 -25 -7
-25 -6 0 -11 -4 -11 -10 0 -5 6 -10 14 -10 9 0 15 19 20 56 4 31 4 59 1 62 -3
3 -5 -7 -5 -21z"/>
<path d="M1757 1263 c-2 -5 -8 -25 -11 -47 -7 -37 -7 -38 18 -34 14 3 26 1 26
-3 0 -5 4 -9 8 -9 13 0 14 71 1 86 -12 15 -35 19 -42 7z"/>
<path d="M477 1223 c-4 -3 -7 -20 -7 -36 l0 -29 58 7 c90 12 95 12 109 -15 18
-36 17 -1 -2 44 l-15 36 -68 0 c-38 0 -72 -3 -75 -7z m30 -9 c-3 -3 -12 -4
-19 -1 -8 3 -5 6 6 6 11 1 17 -2 13 -5z"/>
<path d="M1964 1149 c-3 -5 -1 -9 5 -9 5 0 16 -6 23 -14 8 -7 54 -39 103 -69
90 -56 186 -133 152 -123 -27 9 -184 43 -273 60 -89 17 -321 39 -334 31 -4 -3
-24 2 -44 10 -47 20 -66 19 -36 -2 38 -27 55 -46 69 -81 7 -17 16 -30 20 -28
3 2 13 -12 23 -31 15 -33 15 -34 -1 -19 -21 19 -38 21 -23 3 11 -13 10 -28 -1
-57 -3 -8 -7 -26 -9 -40 -4 -24 -1 -25 46 -28 31 -1 58 4 73 13 13 9 23 13 23
9 0 -4 6 -2 13 4 8 7 18 6 31 -4 11 -8 43 -15 70 -16 l51 -1 -60 -6 c-33 -3
-66 -2 -72 3 -8 5 -13 4 -13 -2 0 -6 -47 -10 -122 -11 l-122 -2 33 23 c19 13
38 33 42 46 10 27 8 27 -21 2 -13 -11 -35 -20 -50 -20 -33 0 -89 41 -116 85
-11 19 -24 32 -27 29 -8 -8 11 -45 32 -61 9 -7 14 -13 11 -13 -29 -7 -39 -7
-38 -2 2 10 -30 82 -37 82 -3 0 -1 -8 4 -18 6 -11 6 -24 1 -32 -12 -19 -2 -62
17 -77 9 -7 13 -19 9 -29 -5 -14 -17 -15 -88 -9 -66 6 -80 5 -76 -6 3 -8 13
-53 23 -100 l19 -86 75 -16 c169 -37 216 -41 364 -28 186 16 207 19 305 32 46
6 86 8 89 5 4 -3 -8 -6 -25 -6 -21 0 -35 -7 -42 -21 -7 -11 -10 -21 -8 -22 2
-1 13 -8 26 -15 18 -10 22 -10 22 3 0 8 9 23 20 32 11 10 20 22 20 28 0 11
188 40 198 31 3 -3 -7 -6 -23 -6 -16 0 -26 -3 -22 -6 3 -3 25 -3 49 2 l43 7
-33 9 c-23 6 -85 2 -195 -11 -267 -33 -421 -44 -575 -39 -148 5 -202 16 -202
41 0 11 10 11 63 1 87 -19 363 -18 532 1 311 35 389 47 373 57 -8 5 12 6 47 3
45 -3 54 -2 35 5 -20 7 -14 9 25 5 38 -3 45 -2 30 5 -16 8 -11 9 20 5 30 -3
36 -2 25 6 -11 8 -3 9 31 5 54 -6 98 2 77 15 -9 6 -4 9 16 9 26 0 28 2 24 35
-2 19 1 37 7 39 23 10 -34 5 -90 -8 -207 -48 -925 -117 -969 -94 -14 8 -21 8
-24 0 -2 -7 -14 -7 -35 -1 -41 12 -50 11 -42 -1 4 -6 3 -10 -2 -9 -4 1 -26 0
-48 -1 l-40 -3 40 -7 c37 -7 38 -7 8 -9 -38 -1 -65 8 -57 20 3 5 -8 9 -23 9
-26 0 -53 15 -53 30 0 3 32 6 71 7 44 2 68 -1 64 -7 -9 -14 22 -12 90 5 32 9
61 12 64 8 8 -11 62 -13 55 -2 -3 5 18 9 47 9 72 0 434 33 434 40 0 0 26 3 59
5 93 7 210 25 216 33 5 8 13 9 84 12 20 1 37 8 40 16 5 12 -1 14 -29 8 -23 -4
-35 -2 -35 5 0 6 -5 11 -11 11 -5 0 -7 -5 -4 -10 7 -11 -30 -8 -41 3 -4 4 -26
7 -49 7 -28 0 -47 6 -58 18 -20 22 -23 39 -4 24 6 -5 41 -10 77 -10 36 0 78
-5 93 -11 39 -15 57 -14 57 4 0 9 -9 15 -23 15 -30 0 -72 41 -102 100 -14 27
-33 54 -42 60 -16 10 -16 11 4 7 15 -3 23 1 26 14 3 11 1 22 -4 25 -5 3 -7 9
-4 14 6 10 -27 16 -190 34 -182 21 -264 25 -271 15z m-299 -139 c3 -5 2 -10
-4 -10 -5 0 -13 5 -16 10 -3 6 -2 10 4 10 5 0 13 -4 16 -10z m711 -23 c3 -19
-4 -21 -25 -8 -15 10 -5 34 12 28 5 -1 11 -11 13 -20z m-16 -32 c0 -8 -4 -15
-9 -15 -5 0 -11 7 -15 15 -3 9 0 15 9 15 8 0 15 -7 15 -15z m5 -15 c10 8 15 7
19 -2 5 -10 7 -10 12 -1 4 9 11 7 27 -7 11 -11 17 -23 14 -27 -4 -3 -7 -1 -7
5 0 7 -7 12 -16 12 -11 0 -15 -6 -11 -19 3 -13 0 -18 -8 -15 -7 3 -12 13 -11
22 1 12 -7 17 -27 17 -19 1 -26 -3 -22 -13 3 -8 -8 -1 -25 15 -16 15 -30 29
-30 30 0 1 16 -5 36 -13 26 -11 39 -12 49 -4z m-95 -52 c0 -11 -32 -10 -50 2
-11 7 -6 9 17 7 18 -1 33 -5 33 -9z m-50 -15 c8 -4 22 -5 31 -4 8 1 24 -7 34
-18 14 -17 15 -23 5 -36 -7 -8 -22 -15 -34 -16 -20 0 -20 -1 -2 -8 19 -7 -166
-32 -229 -30 -39 1 -25 5 64 19 52 9 70 15 60 22 -11 8 -11 11 -1 15 10 4 9 8
-5 19 -15 11 -16 15 -4 23 8 5 19 8 25 7 6 -2 8 -1 4 1 -5 3 -8 8 -8 13 0 8
29 4 60 -7z m-92 -6 c-7 -8 -20 -14 -29 -14 -9 0 -16 6 -16 14 0 8 12 13 29
13 25 0 27 -2 16 -13z m-397 -24 c13 -17 13 -17 -6 -3 -11 8 -22 16 -24 17 -2
2 0 3 6 3 6 0 17 -8 24 -17z m-322 -20 c6 -12 7 -24 3 -27 -5 -3 -9 0 -9 7 0
7 -4 21 -8 32 -10 25 -2 18 14 -12z m64 -11 c-19 -3 -21 -7 -13 -23 6 -10 20
-19 30 -19 21 0 24 -7 12 -28 -5 -7 -16 -10 -25 -6 -9 3 -15 9 -13 13 3 4 -4
17 -14 31 -17 22 -17 25 -2 36 9 6 23 9 32 5 11 -4 10 -7 -7 -9z m-13 -92 c12
-8 10 -10 -10 -10 -14 0 -32 5 -40 10 -12 8 -10 10 10 10 14 0 32 -5 40 -10z
m1075 0 c19 -7 18 -8 -5 -14 -45 -10 -232 -35 -350 -46 -63 -6 -137 -13 -164
-17 -36 -4 -47 -3 -42 6 4 6 26 11 49 11 71 1 493 56 477 62 -13 6 -13 6 0 7
8 0 24 -4 35 -9z m-1201 -25 c-4 -8 -8 -15 -10 -15 -2 0 -4 7 -4 15 0 8 4 15
10 15 5 0 7 -7 4 -15z m1279 -22 c-7 -2 -19 -2 -25 0 -7 3 -2 5 12 5 14 0 19
-2 13 -5z m-1244 -118 c-1 -24 -27 63 -27 90 0 21 4 14 13 -25 8 -30 14 -59
14 -65z m36 46 c18 -11 18 -11 -5 -5 -25 7 -40 21 -40 38 0 6 6 3 13 -6 6 -8
21 -21 32 -27z m522 33 c-3 -3 -12 -4 -19 -1 -8 3 -5 6 6 6 11 1 17 -2 13 -5z
m-327 -15 c0 -5 8 -9 18 -10 14 0 14 -2 -3 -9 -34 -14 -55 -11 -55 8 0 11 8
18 20 19 11 1 20 -2 20 -8z m141 -12 c-9 -26 -41 -33 -71 -17 -30 16 -11 34
39 37 38 2 40 1 32 -20z"/>
<path d="M568 1143 c7 -3 16 -2 19 1 4 3 -2 6 -13 5 -11 0 -14 -3 -6 -6z"/>
<path d="M675 1129 c5 -16 3 -20 -11 -17 -11 2 -20 -4 -22 -14 -5 -24 39 -33
74 -16 39 19 42 36 4 32 -24 -3 -30 0 -30 16 0 11 -5 20 -11 20 -6 0 -8 -9 -4
-21z"/>
<path d="M922 1112 c-13 -9 59 -33 169 -57 132 -28 288 -79 292 -94 2 -9 3 -5
2 9 -4 32 13 63 30 56 7 -2 19 2 25 9 10 12 8 16 -11 24 -44 16 -207 37 -429
55 -36 3 -71 2 -78 -2z m363 -42 c3 -6 -1 -7 -9 -4 -18 7 -21 14 -7 14 6 0 13
-4 16 -10z"/>
<path d="M2445 1100 c-3 -5 -1 -10 4 -10 6 0 11 5 11 10 0 6 -2 10 -4 10 -3 0
-8 -4 -11 -10z"/>
<path d="M357 1084 c-4 -4 1 -13 11 -20 16 -12 15 -13 -7 -14 -20 0 -22 -3
-13 -12 10 -9 15 -9 27 3 13 12 13 18 2 33 -7 9 -16 14 -20 10z"/>
<path d="M125 978 c-20 -49 -15 -279 8 -330 9 -21 21 -38 27 -38 6 0 5 9 -4
23 -33 51 -43 191 -19 254 4 11 3 14 -5 9 -7 -4 -12 -1 -12 9 0 9 4 13 10 10
5 -3 7 0 4 8 -2 7 4 25 15 38 19 23 20 24 38 5 10 -10 12 -16 6 -12 -8 4 -13
1 -13 -8 0 -9 3 -16 8 -16 4 0 12 -12 19 -27 25 -59 36 -126 30 -191 -10 -106
-15 -118 -51 -132 -17 -7 -18 -9 -3 -9 10 -1 16 -5 13 -10 -17 -26 116 -20
148 8 10 9 24 29 31 45 12 27 10 31 -19 56 -17 15 -41 33 -54 39 -13 7 -21 18
-18 26 6 18 -45 193 -70 236 -14 23 -29 35 -47 37 -23 3 -30 -2 -42 -30z"/>
<path d="M1400 964 c0 -41 10 -41 14 0 2 15 -1 29 -5 32 -5 3 -9 -12 -9 -32z"/>
<path d="M1025 943 c36 -15 59 -33 51 -40 -1 -2 -20 6 -41 17 -61 31 -110 27
-150 -13 -44 -44 -59 -101 -58 -217 0 -59 -4 -98 -11 -102 -8 -5 -3 -22 13
-53 13 -25 27 -45 30 -45 4 0 7 48 7 108 -1 91 3 114 22 157 29 63 69 105 99
105 13 0 23 -4 23 -10 0 -5 8 -10 18 -11 11 -1 9 -4 -8 -9 -24 -8 -24 -8 -3
-9 14 -1 21 -6 17 -14 -3 -8 2 -20 11 -27 44 -36 88 -181 87 -286 0 -124 -36
-190 -112 -208 -14 -3 -19 -3 -12 0 10 5 10 9 0 22 -10 14 -10 15 2 5 8 -7 18
-13 23 -13 13 0 -13 30 -27 30 -23 1 -57 41 -83 97 -23 50 -27 72 -28 153 0
90 14 155 37 171 5 3 1 12 -8 20 -10 8 -15 9 -11 3 4 -7 0 -17 -7 -24 -30 -24
-39 -133 -22 -247 11 -73 51 -163 85 -191 9 -7 17 -17 17 -22 1 -6 2 -15 3
-21 2 -17 67 -39 115 -39 25 0 74 7 109 15 35 8 97 18 138 21 41 4 85 7 99 9
14 1 48 3 77 3 28 1 58 8 65 15 9 9 54 16 130 20 65 4 152 12 194 18 61 9 78
9 84 -1 10 -17 106 -7 129 13 9 8 41 20 71 27 123 28 244 61 274 74 17 8 38
16 47 19 9 3 19 19 21 37 4 25 2 30 -11 25 -66 -26 -172 -57 -258 -74 -118
-24 -143 -26 -143 -8 0 9 -3 8 -9 -2 -5 -7 -24 -15 -42 -17 -19 -1 -77 -10
-129 -18 -118 -20 -366 -33 -357 -20 3 6 -39 18 -101 28 -120 21 -162 43 -199
103 -13 21 -23 34 -23 29 0 -30 -40 42 -69 124 -39 110 -54 142 -90 189 -14
18 -26 41 -28 50 -3 24 -42 51 -72 50 -23 0 -21 -2 14 -16z"/>
<path d="M68 913 c7 -3 16 -2 19 1 4 3 -2 6 -13 5 -11 0 -14 -3 -6 -6z"/>
<path d="M40 889 c0 -13 8 -33 16 -44 16 -20 16 -19 9 4 -4 13 -8 30 -9 37 -4
25 -16 28 -16 3z"/>
<path d="M182 845 c-17 -36 -15 -56 3 -49 8 4 12 10 9 15 -3 5 -1 9 4 9 5 0 7
-20 4 -45 -3 -28 -1 -45 6 -45 18 0 20 13 11 69 -10 66 -22 80 -37 46z"/>
<path d="M2598 813 c7 -3 16 -2 19 1 4 3 -2 6 -13 5 -11 0 -14 -3 -6 -6z"/>
<path d="M930 796 c0 -2 8 -10 18 -17 15 -13 16 -12 3 4 -13 16 -21 21 -21 13z"/>
<path d="M1794 768 c-4 -7 -4 -10 1 -6 4 4 15 2 24 -5 14 -11 14 -10 2 6 -16
20 -18 21 -27 5z"/>
<path d="M178 735 c-6 -24 19 -78 32 -70 6 4 10 15 10 26 0 11 -4 18 -9 15 -5
-4 -14 6 -19 21 -8 25 -10 26 -14 8z"/>
<path d="M2333 733 c9 -2 25 -2 35 0 9 3 1 5 -18 5 -19 0 -27 -2 -17 -5z"/>
<path d="M1002 718 c-5 -7 -18 -32 -27 -55 -15 -37 -15 -52 -5 -115 12 -81 28
-128 41 -128 5 0 9 -6 9 -13 0 -23 21 -37 42 -26 18 10 24 34 11 42 -5 2 -3 2
4 1 33 -8 25 183 -10 255 -24 48 -46 61 -65 39z m45 -70 c-3 -8 -6 -5 -6 6 -1
11 2 17 5 13 3 -3 4 -12 1 -19z m-24 -38 c-17 -14 -18 -18 -7 -26 18 -11 26
-51 13 -59 -12 -8 -12 -35 2 -35 5 0 8 4 5 8 -3 5 1 9 9 9 8 0 15 -7 15 -15 0
-9 -3 -12 -7 -9 -3 4 -12 2 -18 -3 -13 -11 -25 6 -30 40 -1 8 -5 30 -9 48 -6
25 -4 33 8 38 9 3 16 13 16 21 0 8 5 11 12 7 8 -5 5 -12 -9 -24z"/>
<path d="M2233 723 c9 -2 25 -2 35 0 9 3 1 5 -18 5 -19 0 -27 -2 -17 -5z"/>
<path d="M1960 708 c-69 -5 -143 -9 -165 -9 -25 0 -35 -3 -26 -8 11 -7 11 -10
0 -14 -8 -4 -3 -4 11 -2 14 2 70 7 125 10 55 4 145 13 200 20 86 11 92 13 40
12 -33 0 -116 -4 -185 -9z"/>
<path d="M1718 693 c6 -2 18 -2 25 0 6 3 1 5 -13 5 -14 0 -19 -2 -12 -5z"/>
<path d="M2368 593 c7 -3 16 -2 19 1 4 3 -2 6 -13 5 -11 0 -14 -3 -6 -6z"/>
<path d="M2233 553 c9 -2 25 -2 35 0 9 3 1 5 -18 5 -19 0 -27 -2 -17 -5z"/>
<path d="M2163 543 c9 -2 25 -2 35 0 9 3 1 5 -18 5 -19 0 -27 -2 -17 -5z"/>
</g>
</svg>
