<?xml version="1.0" standalone="no"?>
<!DOCTYPE svg PUBLIC "-//W3C//DTD SVG 20010904//EN"
 "http://www.w3.org/TR/2001/REC-SVG-20010904/DTD/svg10.dtd">
<svg version="1.0" xmlns="http://www.w3.org/2000/svg"
 width="290.000000pt" height="174.000000pt" viewBox="0 0 290.000000 174.000000"
 preserveAspectRatio="xMidYMid meet">

<g transform="translate(0.000000,174.000000) scale(0.100000,-0.100000)"
fill="#000000" stroke="none">
<path d="M923 1428 c-61 -13 -66 -29 -49 -147 9 -55 18 -112 21 -128 l6 -28
-15 30 -14 30 -1 -32 c-1 -35 -21 -47 -21 -12 0 11 -4 17 -10 14 -6 -4 -7 1
-3 11 4 12 -2 24 -19 38 -26 21 -26 21 -14 87 17 85 28 105 38 64 l7 -30 -2
30 -2 30 -75 -1 c-78 -2 -190 -35 -190 -56 0 -6 -3 -9 -6 -5 -10 10 -91 -50
-130 -98 -21 -24 -41 -42 -45 -39 -4 2 -11 -1 -15 -7 -4 -8 -3 -9 4 -5 8 5 10
-2 6 -24 -6 -26 -4 -30 17 -31 13 -1 45 -3 72 -5 26 -2 47 1 47 6 0 6 -20 10
-44 10 -53 0 -76 8 -76 25 0 15 83 102 129 134 l33 24 -6 -54 -6 -54 14 53 c7
30 18 58 22 62 10 10 158 50 187 50 20 0 20 -5 4 -85 -12 -58 -14 -60 -56 -76
-41 -15 -42 -16 -20 -24 13 -4 26 -8 29 -10 10 -4 35 -14 50 -18 8 -3 -23 -6
-70 -6 -59 -1 -80 -4 -70 -11 11 -7 -3 -10 -47 -10 -35 0 -63 -4 -63 -10 0 -6
47 -10 120 -10 98 0 121 -3 128 -16 11 -19 78 -16 74 4 -1 9 6 11 25 6 16 -3
23 -2 16 3 -8 6 -8 13 3 27 8 11 14 14 14 8 0 -7 9 -12 20 -12 11 0 17 -5 15
-12 -4 -10 28 -13 137 -14 108 -1 126 0 73 6 l-70 6 75 4 c41 2 89 4 107 4 18
1 38 7 44 14 9 8 40 11 89 11 61 -2 68 -3 35 -9 l-40 -6 35 -7 c19 -4 96 -9
170 -11 101 -3 163 -10 245 -29 165 -40 166 -40 75 -7 -47 17 -90 28 -97 26
-7 -3 -15 -1 -18 4 -3 5 -26 12 -51 16 -52 8 -50 19 4 17 20 -1 29 1 19 4 -10
2 -16 11 -13 18 2 8 -3 19 -12 27 -15 12 -16 11 -3 -4 8 -11 9 -18 3 -18 -6 0
-13 4 -16 9 -3 4 -40 9 -83 10 -43 1 -79 6 -81 10 -1 5 -10 17 -18 27 -14 18
-15 18 -5 -3 17 -34 14 -36 -41 -31 -29 3 -62 2 -73 -3 -17 -8 -16 -9 8 -6 15
3 27 0 27 -4 0 -5 -37 -9 -83 -9 l-82 0 -25 45 c-29 52 -34 53 -16 2 7 -20 16
-34 19 -30 4 3 7 1 7 -6 0 -8 -16 -11 -52 -9 l-53 3 -5 47 c-6 50 5 62 51 53
26 -5 24 4 -3 14 -21 8 -18 10 22 20 25 6 59 15 75 20 17 6 59 13 95 17 36 4
72 8 80 10 8 1 19 3 24 3 5 1 3 8 -4 15 -17 22 -94 44 -190 56 -103 12 -359
11 -417 -2z m150 -113 c15 -4 27 -10 27 -14 0 -3 -18 -17 -39 -31 -22 -13 -38
-28 -35 -32 3 -4 -1 -5 -9 -2 -8 3 -20 -3 -28 -12 -12 -16 -12 -17 4 -11 24 9
21 0 -4 -14 -15 -8 -19 -8 -15 0 10 16 -5 13 -29 -5 -19 -14 -20 -12 -36 58
-9 40 -15 75 -13 79 3 6 136 -6 177 -16z m55 -111 c-2 -19 -3 -34 -2 -34 22 0
34 18 34 52 0 26 4 37 11 32 11 -6 4 -73 -9 -85 -4 -4 -28 -10 -54 -13 -58 -9
-63 6 -18 49 17 16 30 36 31 44 0 12 2 12 6 3 3 -7 3 -29 1 -48z m-71 -2 c-10
-10 -17 -27 -17 -37 0 -14 -6 -16 -30 -11 -17 3 -30 1 -30 -4 0 -14 -37 -13
-46 1 -3 6 0 17 7 24 12 11 20 11 52 0 24 -8 37 -9 37 -2 0 11 29 47 38 47 3
0 -2 -8 -11 -18z m622 -58 c2 -2 -39 -4 -93 -4 -54 0 -95 4 -92 9 5 8 175 3
185 -5z"/>
<path d="M996 1265 c-11 -8 -17 -17 -14 -20 2 -3 13 4 23 15 21 23 18 25 -9 5z"/>
<path d="M1565 1340 c10 -11 20 -20 23 -20 3 0 -3 9 -13 20 -10 11 -20 20 -23
20 -3 0 3 -9 13 -20z"/>
<path d="M852 1275 c0 -16 2 -22 5 -12 2 9 2 23 0 30 -3 6 -5 -1 -5 -18z"/>
<path d="M1530 1270 c6 -11 13 -20 16 -20 2 0 0 9 -6 20 -6 11 -13 20 -16 20
-2 0 0 -9 6 -20z"/>
<path d="M862 1210 c0 -14 2 -19 5 -12 2 6 2 18 0 25 -3 6 -5 1 -5 -13z"/>
<path d="M552 1175 c0 -16 2 -22 5 -12 2 9 2 23 0 30 -3 6 -5 -1 -5 -18z"/>
<path d="M236 1161 c-32 -7 -48 -30 -22 -32 9 -1 22 -2 29 -3 6 -1 15 2 18 8
4 5 27 11 50 13 67 7 73 23 8 22 -29 -1 -67 -4 -83 -8z"/>
<path d="M235 1110 l-40 -6 33 -7 c85 -19 92 -19 92 -4 0 18 -32 24 -85 17z"/>
<path d="M1538 1103 c12 -2 32 -2 45 0 12 2 2 4 -23 4 -25 0 -35 -2 -22 -4z"/>
<path d="M477 1043 c-23 -6 -18 -37 6 -41 10 -2 26 0 35 4 14 6 11 9 -13 14
-25 6 -26 8 -7 9 13 0 20 6 17 11 -6 10 -9 11 -38 3z"/>
<path d="M1720 1006 c0 -2 11 -6 25 -8 13 -3 22 -1 19 3 -5 9 -44 13 -44 5z"/>
<path d="M2237 993 c3 -8 8 -11 11 -9 3 3 10 -1 16 -9 6 -7 17 -15 25 -17 7
-2 25 -14 40 -26 35 -32 66 -49 55 -30 -4 7 2 5 13 -5 20 -17 124 -49 133 -41
2 3 -6 7 -18 11 -17 4 -21 11 -17 24 5 15 1 19 -20 19 -14 0 -45 10 -68 21
-85 44 -175 77 -170 62z"/>
<path d="M146 953 c-8 -16 -16 -59 -20 -98 -4 -61 -4 -64 4 -25 11 52 41 96
64 94 23 -2 20 5 -6 15 l-22 8 21 11 c17 10 25 8 44 -6 20 -17 22 -29 26 -144
4 -113 3 -130 -17 -177 -20 -44 -26 -51 -51 -51 -16 0 -29 5 -29 12 0 6 -3 9
-6 6 -11 -11 17 -49 44 -59 15 -6 99 -15 187 -19 177 -10 271 -22 353 -46 30
-8 66 -13 79 -9 16 4 22 2 18 -5 -4 -7 3 -9 22 -5 19 5 24 4 14 -3 -10 -7 -5
-13 23 -22 19 -6 51 -12 71 -13 19 -1 35 -5 35 -9 0 -5 6 -8 14 -8 7 0 26 -19
41 -42 15 -24 39 -53 54 -65 34 -29 135 -50 301 -62 74 -6 200 -20 280 -30
254 -35 571 -26 794 23 82 18 183 66 164 78 -9 5 -5 8 11 8 l24 0 -26 24 c-17
16 -22 26 -14 29 7 3 3 8 -11 14 -21 8 -21 9 13 27 39 21 44 32 16 32 -11 0
-17 -5 -14 -10 3 -5 1 -6 -5 -2 -15 9 -16 46 -2 46 6 0 5 8 -2 20 -10 15 -10
22 0 32 22 22 13 26 -25 13 -50 -17 -164 -40 -294 -59 -180 -27 -184 -16 -5
15 93 16 174 31 180 33 21 10 -229 -5 -318 -18 -48 -8 -97 -11 -107 -9 -26 7
-111 -6 -104 -17 8 -13 -59 -21 -107 -13 -38 6 -40 8 -18 14 24 6 24 7 -10 15
-26 6 12 11 152 20 205 13 420 38 513 60 39 9 46 12 20 9 -22 -2 -98 -11 -170
-19 -297 -34 -575 -41 -591 -15 -3 5 59 9 138 9 174 0 328 13 554 45 152 22
313 59 302 70 -2 2 -25 -2 -52 -10 -35 -11 -62 -12 -99 -6 -29 5 -44 9 -35 10
31 2 119 23 115 27 -2 3 -49 -2 -103 -10 -170 -26 -441 -46 -639 -49 -104 -1
-193 -6 -197 -11 -4 -6 1 -15 10 -22 13 -9 7 -12 -31 -12 -47 -1 -70 13 -46
29 10 6 8 9 -8 9 -13 0 -23 5 -23 11 0 5 -5 7 -10 4 -6 -4 -7 -12 -4 -18 4 -7
-6 2 -22 19 -23 23 -37 30 -62 28 -18 -1 -34 2 -37 6 -3 4 -15 6 -26 3 -29 -8
-21 15 12 36 23 15 23 15 10 -2 -12 -15 -11 -17 13 -18 14 -1 43 -1 64 0 99 3
168 -1 176 -9 6 -6 15 -10 21 -10 5 0 4 4 -3 9 -8 5 47 11 135 15 293 14 663
53 716 77 19 8 18 9 -8 4 -87 -14 -391 -46 -536 -55 -182 -12 -397 -11 -377 1
6 4 16 5 22 2 5 -4 -1 9 -15 28 -26 37 -36 64 -19 54 6 -3 8 -11 5 -16 -4 -5
0 -9 8 -9 8 0 18 -10 23 -21 15 -32 105 -38 134 -9 22 22 26 45 10 55 -6 3 -7
-1 -4 -10 4 -10 2 -15 -7 -13 -7 2 -13 -4 -14 -12 0 -8 -7 -16 -16 -18 -23 -4
-71 16 -64 27 3 5 0 13 -6 17 -8 5 -9 3 -4 -6 5 -8 3 -11 -6 -8 -8 3 -13 12
-11 19 2 8 0 11 -4 7 -8 -8 -34 9 -34 22 0 5 8 10 18 12 14 3 13 5 -6 10 -12
3 -20 2 -16 -3 7 -12 -9 -12 -21 0 -7 6 -10 -8 -10 -40 0 -33 4 -48 12 -45 6
3 13 -1 16 -8 3 -8 -9 -12 -42 -13 -38 -1 -42 1 -21 8 18 6 12 7 -24 4 -27 -3
-58 -5 -70 -5 -17 0 -18 -2 -7 -9 10 -6 -17 -10 -75 -10 l-90 0 -41 57 c-122
172 -279 157 -328 -33 -8 -32 -15 -89 -16 -125 -1 -48 -3 -58 -9 -40 -7 22
-15 11 -11 -13 2 -10 -4 -9 -219 39 -244 54 -255 57 -255 75 0 9 -11 31 -25
49 -14 18 -35 57 -47 87 -28 68 -37 79 -70 88 -32 8 -44 -8 -33 -44 4 -14 15
-62 25 -106 10 -44 22 -86 27 -92 6 -7 28 -13 50 -13 21 0 132 -22 246 -49
114 -28 229 -55 257 -61 54 -12 75 -25 75 -46 0 -10 -5 -12 -17 -5 -35 19
-489 123 -560 128 l-72 6 -22 96 c-39 175 -75 241 -130 241 -21 0 -32 -7 -43
-27z m1080 -92 c13 -10 20 -21 17 -25 -3 -3 -1 -6 5 -6 6 0 9 -7 5 -17 -5 -12
-3 -14 7 -8 8 5 11 4 6 -3 -9 -15 -38 -3 -29 12 3 6 3 8 -2 4 -4 -4 -15 -2
-24 5 -9 6 0 -7 19 -30 54 -63 75 -131 75 -239 0 -81 -3 -97 -30 -149 -20 -38
-41 -64 -62 -75 -18 -9 -30 -20 -26 -24 3 -3 -6 -6 -20 -6 -15 0 -27 5 -27 11
0 5 -4 8 -9 5 -13 -9 -69 41 -88 78 -23 43 -39 168 -32 242 11 117 85 213 152
200 17 -4 26 -2 22 4 -8 13 -56 13 -90 0 -17 -7 -24 -7 -20 0 3 6 12 10 20 10
7 0 15 7 19 15 8 22 82 20 112 -4z m401 -127 c-3 -3 -12 -4 -19 -1 -8 3 -5 6
6 6 11 1 17 -2 13 -5z m-1182 -34 c4 -6 -6 -10 -24 -10 -16 0 -33 5 -36 10 -4
6 6 10 24 10 16 0 33 -4 36 -10z m2158 -57 c-7 -2 -19 -2 -25 0 -7 3 -2 5 12
5 14 0 19 -2 13 -5z m-493 -33 c13 -8 13 -9 0 -14 -18 -5 -80 -14 -80 -10 0
31 47 45 80 24z m18 -157 c-10 -2 -28 -2 -40 0 -13 2 -5 4 17 4 22 1 32 -1 23
-4z"/>
<path d="M1134 813 c-12 -2 -32 -15 -44 -28 -22 -23 -22 -24 -1 -18 11 3 26
11 32 19 6 8 18 14 25 14 8 0 14 5 14 10 0 6 -1 9 -2 9 -2 -1 -13 -4 -24 -6z"/>
<path d="M1177 791 c3 -11 -2 -21 -11 -24 -8 -3 -25 -25 -38 -49 -18 -34 -23
-59 -23 -123 0 -86 1 -90 75 -165 19 -19 33 -38 32 -42 -1 -5 7 -8 19 -8 16 0
19 4 14 20 -5 15 0 26 17 39 22 18 23 26 23 128 -1 98 -3 113 -28 160 -16 31
-39 59 -56 68 -27 13 -29 13 -24 -4z m-6 -133 c17 -24 18 -29 6 -19 -18 14
-42 51 -33 51 3 0 15 -15 27 -32z m-21 -18 c6 -11 8 -20 6 -20 -3 0 -10 9 -16
20 -6 11 -8 20 -6 20 3 0 10 -9 16 -20z m130 -144 c0 -6 -7 -2 -15 8 -8 11
-15 25 -15 30 0 6 7 2 15 -8 8 -11 15 -25 15 -30z"/>
<path d="M1163 343 c9 -2 23 -2 30 0 6 3 -1 5 -18 5 -16 0 -22 -2 -12 -5z"/>
<path d="M1683 965 c-3 -9 -3 -18 -1 -21 3 -3 8 4 11 16 6 23 -1 27 -10 5z"/>
<path d="M1820 961 c5 -11 15 -23 21 -27 6 -3 3 5 -6 20 -20 30 -30 35 -15 7z"/>
<path d="M2541 954 c0 -11 3 -14 6 -6 3 7 2 16 -1 19 -3 4 -6 -2 -5 -13z"/>
<path d="M1719 928 c0 -13 -2 -31 -4 -40 -4 -24 7 -23 23 2 9 15 10 26 2 40
-14 26 -20 25 -21 -2z"/>
<path d="M188 903 c7 -3 16 -2 19 1 4 3 -2 6 -13 5 -11 0 -14 -3 -6 -6z"/>
<path d="M1680 901 c0 -6 4 -13 10 -16 6 -3 7 1 4 9 -7 18 -14 21 -14 7z"/>
<path d="M2535 900 c-10 -16 44 -67 81 -76 27 -6 27 -5 -13 24 -23 17 -46 39
-51 48 -7 12 -11 13 -17 4z"/>
<path d="M462 860 c0 -14 2 -19 5 -12 2 6 2 18 0 25 -3 6 -5 1 -5 -13z"/>
<path d="M480 861 c0 -11 -4 -22 -9 -26 -6 -3 -6 -17 -1 -34 4 -16 6 -32 4
-35 -2 -3 -1 -4 2 -1 4 2 16 0 28 -6 21 -10 21 -10 1 7 -20 17 -17 17 29 -2
15 -6 15 7 0 69 -5 22 -3 27 12 28 18 0 18 1 -1 9 -37 16 -65 12 -65 -9z"/>
<path d="M221 835 c-14 -53 -14 -101 3 -148 10 -29 15 -35 20 -22 9 23 6 166
-3 190 -7 17 -10 14 -20 -20z"/>
<path d="M640 861 c0 -6 -19 -12 -42 -14 l-43 -4 41 -1 c27 -1 46 3 54 13 9
10 9 15 1 15 -6 0 -11 -4 -11 -9z"/>
<path d="M2295 830 c3 -5 8 -10 11 -10 2 0 4 5 4 10 0 6 -5 10 -11 10 -5 0 -7
-4 -4 -10z"/>
<path d="M578 813 c12 -2 32 -2 45 0 12 2 2 4 -23 4 -25 0 -35 -2 -22 -4z"/>
<path d="M561 796 c9 -8 98 -13 93 -5 -3 5 -26 9 -51 9 -26 0 -44 -2 -42 -4z"/>
<path d="M963 770 c3 -11 1 -23 -4 -26 -12 -7 -12 -114 1 -114 5 0 7 21 3 50
-4 36 -2 50 7 50 8 0 10 8 6 26 -5 18 -3 24 5 18 8 -4 9 -3 5 4 -12 20 -29 13
-23 -8z"/>
<path d="M122 700 c0 -19 2 -27 5 -17 2 9 2 25 0 35 -3 9 -5 1 -5 -18z"/>
<path d="M1772 673 c-23 -9 -1 -23 36 -23 34 0 35 1 16 15 -20 15 -31 17 -52
8z"/>
<path d="M710 660 c-9 -6 -10 -10 -3 -10 6 0 15 5 18 10 8 12 4 12 -15 0z"/>
<path d="M1668 643 c6 -2 18 -2 25 0 6 3 1 5 -13 5 -14 0 -19 -2 -12 -5z"/>
<path d="M1690 626 c0 -2 7 -7 16 -10 8 -3 12 -2 9 4 -6 10 -25 14 -25 6z"/>
</g>
</svg>
